<?xml version="1.0" encoding="UTF-8" standalone="no"?>
<!DOCTYPE svg PUBLIC "-//W3C//DTD SVG 1.1//EN" "http://www.w3.org/Graphics/SVG/1.1/DTD/svg11.dtd">
<svg width="100%" height="100%" viewBox="0 0 806 806" version="1.1" xmlns="http://www.w3.org/2000/svg" xmlns:xlink="http://www.w3.org/1999/xlink" xml:space="preserve" xmlns:serif="http://www.serif.com/" style="fill-rule:evenodd;clip-rule:evenodd;stroke-linecap:round;stroke-linejoin:round;stroke-miterlimit:1.5;">
    <g id="Logo" transform="matrix(1,0,0,1,-1406.99,3.73296)">
        <rect x="1406.99" y="-3.733" width="805.457" height="805.457" style="fill:none;"/>
        <clipPath id="_clip1">
            <rect x="1406.99" y="-3.733" width="805.457" height="805.457"/>
        </clipPath>
        <g clip-path="url(#_clip1)">
            <g id="Layer1" transform="matrix(1,0,0,1,1169.77,0.267037)">
                <g transform="matrix(1,0,0,1,-1,-2)">
                    <rect x="-0.841" y="-0.902" width="1283.58" height="810.876" style="fill:rgb(65,50,51);"/>
                </g>
                <g id="Logo1" serif:id="Logo" transform="matrix(1.39282,0,0,1.39282,-244.805,-124.514)">
                    <g transform="matrix(1,0,0,1,272.144,42.6144)">
                        <path d="M297.873,277.44C297.873,277.44 288.458,185.812 292.608,83.232" style="fill:none;stroke:rgb(219,209,182);stroke-width:3.59px;"/>
                    </g>
                    <g transform="matrix(1,0,0,1,272.144,42.6144)">
                        <path d="M315.354,285.469C315.354,285.469 312.033,266.579 363.701,238.418C385.229,226.684 405.385,216.907 413.997,208.584C427.024,195.994 428.524,170.621 429.315,154.427" style="fill:none;stroke:rgb(219,209,182);stroke-width:3.59px;"/>
                    </g>
                    <g transform="matrix(1,0,0,1,272.144,42.6144)">
                        <path d="M409.153,212.354C409.153,212.354 388.337,206.905 388.983,165.559" style="fill:none;stroke:rgb(219,209,182);stroke-width:3.59px;"/>
                    </g>
                    <g transform="matrix(1,0,0,1,237.222,-4)">
                        <path d="M423.595,399.332C423.595,399.332 431.864,360.908 473.236,340.369C500.064,327.05 507.06,308.696 508.124,289.616" style="fill:none;stroke:rgb(219,209,182);stroke-width:3.59px;"/>
                    </g>
                    <g transform="matrix(1,0,0,1,237.222,-4)">
                        <path d="M478.128,338.255C478.128,338.255 507.79,339.101 531.98,377.916" style="fill:none;stroke:rgb(219,209,182);stroke-width:3.59px;"/>
                    </g>
                    <g transform="matrix(0.707107,-0.707107,0.707107,0.707107,76.6433,599.466)">
                        <path d="M500.099,402.967L392.499,402.967L392.499,186.967L473.699,186.967C484.632,186.967 493.566,188.1 500.499,190.367C507.432,192.633 512.766,195.7 516.499,199.567C520.232,203.433 522.766,207.9 524.099,212.967C525.432,218.033 526.099,223.5 526.099,229.367L526.099,254.967C526.099,262.967 524.699,270.3 521.899,276.967C519.099,283.633 511.966,288.433 500.499,291.367C511.432,291.367 520.366,292.5 527.299,294.767C534.232,297.033 539.566,300.233 543.299,304.367C547.032,308.5 549.499,313.367 550.699,318.967C551.899,324.567 552.499,330.7 552.499,337.367L552.499,362.967C552.499,368.833 551.832,374.233 550.499,379.167C549.166,384.1 546.699,388.3 543.099,391.767C539.499,395.233 534.232,397.967 527.299,399.967C520.366,401.967 511.299,402.967 500.099,402.967ZM473.699,190.967L396.499,190.967L396.499,291.367L473.699,291.367C484.632,291.367 493.299,290.367 499.699,288.367C506.099,286.367 510.966,283.7 514.299,280.367C517.632,277.033 519.766,273.167 520.699,268.767C521.632,264.367 522.099,259.767 522.099,254.967L522.099,229.367C522.099,218.7 519.032,209.633 512.899,202.167C506.766,194.7 493.699,190.967 473.699,190.967ZM500.499,295.367L396.499,295.367L396.499,398.967L500.099,398.967C520.099,398.967 533.166,395.7 539.299,389.167C545.432,382.633 548.499,373.9 548.499,362.967L548.499,337.367C548.499,325.367 545.499,315.367 539.499,307.367C533.499,299.367 520.499,295.367 500.499,295.367Z" style="fill:rgb(219,209,182);fill-rule:nonzero;"/>
                    </g>
                    <g transform="matrix(1,0,0,1,274.144,43.6144)">
                        <path d="M394.058,389.312C394.058,389.312 392.842,344.53 362.45,318.854C341.224,300.921 319.381,284.232 291.614,276.574C252.414,265.763 218.634,229.063 217.303,164.329" style="fill:none;stroke:rgb(219,209,182);stroke-width:3.59px;"/>
                    </g>
                </g>
            </g>
        </g>
    </g>
</svg>
