<?xml version="1.0" encoding="UTF-8" standalone="no"?>
<!DOCTYPE svg PUBLIC "-//W3C//DTD SVG 1.1//EN" "http://www.w3.org/Graphics/SVG/1.1/DTD/svg11.dtd">
<svg width="100%" height="100%" viewBox="0 0 798 798" version="1.1" xmlns="http://www.w3.org/2000/svg" xmlns:xlink="http://www.w3.org/1999/xlink" xml:space="preserve" xmlns:serif="http://www.serif.com/" style="fill-rule:evenodd;clip-rule:evenodd;stroke-linejoin:round;stroke-miterlimit:1.41421;" class="box">
    <g transform="matrix(1,0,0,1,-20,-913)">
        <g id="Box" transform="matrix(1,0,0,1,-0.456035,-0.503626)">
            <rect x="20.456" y="913.504" width="797.634" height="797.634" style="fill:none;"/>
            <g id="Layer2" transform="matrix(1,0,0,1,0.456035,0.503626)">
                <g>
                    <g transform="matrix(5.91852,0,0,5.91852,124.646,-4618.33)">
                        <path d="M50.062,957.37C50.318,957.382 50.552,957.435 50.75,957.495L90.75,973.495C91.49,973.794 92.008,974.572 92,975.37L92,1029.37C91.996,1030.16 91.48,1030.92 90.75,1031.21L50.75,1047.21C50.275,1047.4 49.725,1047.4 49.25,1047.21L9.25,1031.21C8.52,1030.92 8.004,1030.16 8,1029.37L8,975.37C7.992,974.572 8.51,973.794 9.25,973.495L49.25,957.495C49.528,957.385 49.807,957.357 50.062,957.37ZM50,961.526L15.406,975.37L28.094,980.432L60.75,965.838L50,961.526ZM69.625,969.37L35.906,983.557L50,989.182L84.594,975.37L69.625,969.37ZM88,978.307L52,992.713L52,1042.37L88,1028L88,978.307ZM12,978.307L12,1028L48,1042.37L48,992.713L34,987.12L34,1002.37L26,999.37L26,983.901L12,978.307Z" style="fill:white;fill-rule:nonzero;"/>
                    </g>
                    <g transform="matrix(5.91852,0,0,5.91852,124.646,-4618.33)">
                        <path d="M50.062,957.37C50.318,957.382 50.552,957.435 50.75,957.495L49.25,957.495C49.528,957.385 49.807,957.357 50.062,957.37ZM50,961.526L15.406,975.37L28.094,980.432L60.75,965.838L50,961.526ZM69.625,969.37L35.906,983.557L50,989.182L84.594,975.37L69.625,969.37ZM88,978.307L52,992.713L52,1042.37L88,1028L88,978.307ZM12,978.307L12,1028L48,1042.37L48,992.713L34,987.12L34,1002.37L26,999.37L26,983.901L12,978.307Z" style="fill:rgb(0,255,172);fill-rule:nonzero;"/>
                    </g>
                </g>
                <g>
                    <g transform="matrix(10.343,0,0,10.343,90.2161,946.504)">
                        <rect x="20" y="1" width="2" height="2" style="fill:white;"/>
                    </g>
                    <g transform="matrix(10.343,0,0,10.343,90.2161,946.504)">
                        <rect x="35" y="1" width="2" height="2" style="fill:rgb(0,255,172);"/>
                    </g>
                    <g transform="matrix(10.343,0,0,10.343,90.2161,946.504)">
                        <rect x="2" y="16" width="2" height="2" style="fill:rgb(0,255,172);"/>
                    </g>
                    <g transform="matrix(10.343,0,0,10.343,61.7939,1224.98)">
                        <rect x="2" y="16" width="2" height="2" style="fill:white;"/>
                    </g>
                    <g transform="matrix(10.343,0,0,10.343,718.73,1224.98)">
                        <rect x="2" y="16" width="2" height="2" style="fill:rgb(0,255,172);"/>
                    </g>
                    <g transform="matrix(10.343,0,0,10.343,90.2161,946.504)">
                        <rect x="60" y="15.5" width="2" height="2" style="fill:white;"/>
                    </g>
                    <g transform="matrix(10.343,0,0,10.343,90.2161,946.504)">
                        <rect x="51" y="2" width="2" height="2" style="fill:rgb(0,255,172);"/>
                    </g>
                    <g transform="matrix(10.343,0,0,10.343,90.2161,946.504)">
                        <rect x="51" y="6" width="2" height="2" style="fill:rgb(0,255,172);"/>
                    </g>
                    <g transform="matrix(10.343,0,0,10.343,90.2161,946.504)">
                        <rect x="49" y="4" width="2" height="2" style="fill:rgb(0,255,172);"/>
                    </g>
                    <g transform="matrix(10.343,0,0,10.343,90.2161,946.504)">
                        <rect x="53" y="4" width="2" height="2" style="fill:rgb(0,255,172);"/>
                    </g>
                    <g transform="matrix(10.343,0,0,10.343,90.2161,946.504)">
                        <rect x="8" y="3" width="2" height="2" style="fill:white;"/>
                    </g>
                    <g transform="matrix(10.343,0,0,10.343,90.2161,946.504)">
                        <rect x="8" y="7" width="2" height="2" style="fill:white;"/>
                    </g>
                    <g transform="matrix(10.343,0,0,10.343,90.2161,946.504)">
                        <rect x="6" y="5" width="2" height="2" style="fill:white;"/>
                    </g>
                    <g transform="matrix(10.343,0,0,10.343,90.2161,946.504)">
                        <rect x="10" y="5" width="2" height="2" style="fill:white;"/>
                    </g>
                    <g transform="matrix(10.343,0,0,10.343,90.2161,1547.51)">
                        <rect x="51" y="2" width="2" height="2" style="fill:white;"/>
                    </g>
                    <g transform="matrix(10.343,0,0,10.343,90.2161,1547.51)">
                        <rect x="51" y="6" width="2" height="2" style="fill:white;"/>
                    </g>
                    <g transform="matrix(10.343,0,0,10.343,90.2161,1547.51)">
                        <rect x="49" y="4" width="2" height="2" style="fill:white;"/>
                    </g>
                    <g transform="matrix(10.343,0,0,10.343,90.2161,1547.51)">
                        <rect x="53" y="4" width="2" height="2" style="fill:white;"/>
                    </g>
                    <g transform="matrix(10.343,0,0,10.343,90.2161,1547.51)">
                        <rect x="8" y="3" width="2" height="2" style="fill:rgb(0,255,172);"/>
                    </g>
                    <g transform="matrix(10.343,0,0,10.343,90.2161,1547.51)">
                        <rect x="8" y="7" width="2" height="2" style="fill:rgb(0,255,172);"/>
                    </g>
                    <g transform="matrix(10.343,0,0,10.343,90.2161,1547.51)">
                        <rect x="6" y="5" width="2" height="2" style="fill:rgb(0,255,172);"/>
                    </g>
                    <g transform="matrix(10.343,0,0,10.343,90.2161,1547.51)">
                        <rect x="10" y="5" width="2" height="2" style="fill:rgb(0,255,172);"/>
                    </g>
                </g>
            </g>
        </g>
    </g>
</svg>
